<svg width="750" height="791" viewBox="0 0 750 791" fill="none" xmlns="http://www.w3.org/2000/svg">
<rect width="750" height="791" fill="#F4F4F4"/>
<path d="M530.09 91.71C532.2 90.43 534.45 89.47 536.77 88.81L538.15 82.2L549.33 82L550.94 88.56C553.28 89.14 555.56 90.03 557.72 91.23L563.37 87.53L571.41 95.29L567.91 101.06C569.19 103.17 570.16 105.42 570.81 107.74L577.42 109.12L577.62 120.3L571.06 121.91C570.48 124.25 569.59 126.53 568.39 128.69L572.09 134.34L564.33 142.38L558.56 138.88C556.45 140.16 554.2 141.12 551.88 141.78L550.5 148.39L539.33 148.59L537.72 142.03C535.38 141.45 533.1 140.56 530.94 139.36L525.29 143.06L517.25 135.3L520.75 129.53C519.47 127.42 518.5 125.17 517.85 122.85L511.24 121.47L511.04 110.3L517.6 108.69C518.18 106.35 519.07 104.07 520.27 101.91L516.57 96.26L524.33 88.22L530.11 91.72L530.09 91.71ZM536.05 106.6C531.45 111.36 531.58 118.95 536.35 123.55C541.11 128.15 548.7 128.02 553.3 123.25C557.9 118.49 557.77 110.9 553 106.3C548.24 101.7 540.65 101.83 536.05 106.6Z" fill="#D9D9D9"/>
<path opacity="0.4" d="M114.03 227.93C115.76 226.89 117.59 226.1 119.49 225.56L120.61 220.16L129.73 220L131.04 225.36C132.95 225.83 134.82 226.56 136.58 227.54L141.19 224.52L147.76 230.86L144.9 235.57C145.94 237.3 146.73 239.13 147.27 241.03L152.67 242.15L152.83 251.27L147.47 252.58C147 254.49 146.27 256.35 145.29 258.12L148.31 262.73L141.97 269.3L137.26 266.44C135.53 267.48 133.7 268.27 131.8 268.81L130.68 274.21L121.56 274.37L120.25 269.01C118.34 268.54 116.47 267.81 114.71 266.83L110.1 269.85L103.53 263.51L106.39 258.8C105.35 257.07 104.56 255.24 104.02 253.34L98.62 252.22L98.46 243.1L103.82 241.79C104.29 239.88 105.02 238.02 106 236.25L102.98 231.64L109.32 225.07L114.04 227.93H114.03ZM118.89 240.09C115.13 243.98 115.24 250.18 119.13 253.93C123.02 257.69 129.22 257.58 132.97 253.69C136.72 249.8 136.62 243.6 132.73 239.85C128.84 236.09 122.64 236.2 118.89 240.09Z" fill="#D9D9D9"/>
<path opacity="0.4" d="M169.86 191.88C171.01 191.18 172.24 190.66 173.5 190.3L174.25 186.7L180.34 186.59L181.22 190.16C182.5 190.47 183.74 190.96 184.91 191.61L187.99 189.59L192.37 193.82L190.46 196.97C191.16 198.12 191.68 199.35 192.04 200.61L195.64 201.36L195.75 207.45L192.17 208.33C191.86 209.61 191.37 210.85 190.72 212.02L192.74 215.1L188.51 219.48L185.36 217.57C184.21 218.27 182.98 218.79 181.72 219.15L180.97 222.75L174.88 222.86L174 219.28C172.72 218.97 171.48 218.48 170.31 217.83L167.23 219.85L162.85 215.62L164.76 212.47C164.06 211.32 163.54 210.09 163.18 208.83L159.58 208.08L159.47 201.99L163.05 201.11C163.36 199.83 163.85 198.59 164.5 197.42L162.48 194.34L166.71 189.96L169.86 191.87V191.88ZM173.11 199.99C170.6 202.59 170.68 206.72 173.27 209.23C175.87 211.74 180 211.66 182.51 209.07C185.02 206.47 184.94 202.34 182.35 199.83C179.75 197.32 175.62 197.4 173.11 199.99Z" fill="#D9D9D9"/>
<path opacity="0.4" d="M47.87 192.45C49.02 191.75 50.25 191.23 51.51 190.87L52.26 187.27L58.35 187.16L59.23 190.73C60.51 191.04 61.75 191.53 62.92 192.18L66 190.16L70.38 194.39L68.47 197.54C69.17 198.69 69.69 199.92 70.05 201.18L73.65 201.93L73.76 208.02L70.18 208.9C69.87 210.18 69.38 211.42 68.73 212.59L70.75 215.67L66.52 220.05L63.37 218.14C62.22 218.84 60.99 219.36 59.73 219.72L58.98 223.32L52.89 223.43L52.01 219.85C50.73 219.54 49.49 219.05 48.32 218.4L45.24 220.42L40.86 216.19L42.77 213.04C42.07 211.89 41.55 210.66 41.19 209.4L37.59 208.65L37.48 202.56L41.06 201.68C41.37 200.4 41.86 199.16 42.51 197.99L40.49 194.91L44.72 190.53L47.87 192.44V192.45ZM51.12 200.56C48.61 203.16 48.69 207.29 51.28 209.8C53.88 212.31 58.01 212.23 60.52 209.64C63.03 207.04 62.95 202.91 60.36 200.4C57.76 197.89 53.63 197.97 51.12 200.56Z" fill="#B8B8B8"/>
<path d="M610.11 92.15C611.45 91.34 612.87 90.73 614.35 90.31L615.22 86.12L622.3 86L623.32 90.16C624.8 90.53 626.25 91.09 627.62 91.85L631.2 89.5L636.3 94.42L634.08 98.08C634.89 99.42 635.5 100.85 635.92 102.32L640.11 103.19L640.23 110.27L636.07 111.29C635.7 112.77 635.14 114.22 634.38 115.59L636.73 119.17L631.81 124.27L628.15 122.05C626.81 122.86 625.38 123.47 623.91 123.89L623.04 128.08L615.96 128.2L614.94 124.04C613.46 123.67 612.01 123.11 610.64 122.35L607.06 124.7L601.96 119.78L604.18 116.12C603.37 114.78 602.76 113.36 602.34 111.88L598.15 111.01L598.03 103.93L602.19 102.91C602.56 101.43 603.12 99.98 603.88 98.61L601.53 95.03L606.45 89.93L610.11 92.15ZM613.89 101.59C610.97 104.61 611.06 109.42 614.08 112.34C617.1 115.26 621.91 115.17 624.83 112.15C627.74 109.13 627.66 104.32 624.64 101.4C621.62 98.49 616.81 98.57 613.89 101.59Z" fill="#D9D9D9"/>
<path d="M223.855 409.709L218.028 427.87L368.679 478.894L374.788 460.836L223.855 409.709Z" fill="#455A64"/>
<path d="M227.441 424.349L182.193 615.6C181.309 619.531 183.537 623.502 187.354 624.795L276.582 655.02C280.36 656.301 284.484 654.38 285.931 650.666L363.031 470.276L227.428 424.349H227.441Z" fill="#455A64"/>
<path d="M234.075 491.92C234.075 491.92 234.703 485.964 230.323 483.685C225.943 481.405 215.505 478.741 215.505 478.741C215.505 478.741 219.142 484.722 219.475 494.379L215.185 495.16L228.542 505.047L237.648 491.715L234.05 491.92H234.075Z" fill="white"/>
<path d="M215.48 540.176C215.48 540.176 220.538 543.377 224.522 540.47C228.505 537.563 235.51 529.379 235.51 529.379C235.51 529.379 228.53 529.994 219.732 526.011L220.935 521.823L206.143 529.417L214.058 543.48L215.467 540.176H215.48Z" fill="white"/>
<path d="M238.379 526.767C238.379 526.767 241.273 524.282 241.03 519.889C240.787 515.497 238.135 506.339 238.135 506.339L224.176 509.708L228.082 525.909C228.082 525.909 232.27 527.868 238.366 526.78L238.379 526.767Z" fill="white"/>
<g opacity="0.3">
<path d="M358.063 475.296C338.929 470.199 318.552 466.818 299.418 461.72C274.329 455.035 248.369 447.914 228.364 431.367L358.063 475.296Z" fill="black"/>
</g>
<path d="M368.846 478.946C368.91 478.767 335.086 467.164 293.322 453.012C251.545 438.86 217.644 427.538 217.58 427.704C217.516 427.871 251.327 439.487 293.104 453.639C334.868 467.791 368.782 479.113 368.833 478.946H368.846Z" fill="#263238"/>
<path d="M262.471 655.041C256.96 643.791 261.612 630.204 272.861 624.693C284.111 619.182 297.697 623.834 303.208 635.083C308.719 646.333 304.068 659.92 292.818 665.431C281.569 670.942 267.982 666.29 262.471 655.041Z" fill="#263238"/>
<path d="M280.126 658.251C272.835 656.766 268.128 649.652 269.613 642.361C271.097 635.069 278.212 630.362 285.503 631.847C292.795 633.332 297.502 640.446 296.017 647.737C294.532 655.029 287.418 659.736 280.126 658.251Z" fill="#455A64"/>
<path d="M366.656 458.081L333.626 426.05L275.366 406.314L229.772 411.706L366.656 458.081Z" fill="#455A64"/>
<path d="M223.855 409.707C223.791 409.886 257.538 421.464 299.213 435.591C340.9 449.717 374.737 461.013 374.788 460.834C374.852 460.654 341.118 449.077 299.431 434.95C257.756 420.837 223.919 409.528 223.855 409.707Z" fill="#263238"/>
<path d="M495.829 626.678L500.453 650.755C500.453 650.755 527.207 659.311 527.412 664.293L476.618 665.215L472.622 626.819L495.829 626.678Z" fill="#455A64"/>
<g opacity="0.6">
<path d="M480.716 650.139C479.704 650.396 478.987 651.51 479.192 652.534C479.41 653.559 480.537 654.302 481.561 654.059C482.573 653.815 483.482 652.509 483.15 651.51C482.817 650.524 481.446 649.717 480.511 650.191" fill="white"/>
</g>
<g opacity="0.6">
<path d="M476.605 665.215L475.786 661.526L525.708 661.859C525.708 661.859 527.386 662.564 527.68 664.664L476.618 665.215H476.605Z" fill="white"/>
</g>
<path d="M501.298 650.499C501.285 650.756 500.004 650.845 498.749 651.639C497.455 652.395 496.789 653.484 496.559 653.381C496.328 653.33 496.738 651.819 498.288 650.884C499.825 649.936 501.362 650.269 501.298 650.499Z" fill="#263238"/>
<path d="M506.715 652.868C506.766 653.112 505.664 653.522 504.768 654.585C503.859 655.622 503.615 656.775 503.359 656.762C503.116 656.8 502.975 655.302 504.102 654.008C505.216 652.702 506.715 652.625 506.715 652.868Z" fill="#263238"/>
<path d="M509.686 659.464C509.456 659.516 509.123 658.235 509.802 656.852C510.467 655.469 511.684 654.944 511.787 655.161C511.928 655.379 511.133 656.109 510.596 657.249C510.032 658.376 509.93 659.452 509.686 659.464Z" fill="#263238"/>
<path d="M499.146 644.903C499.031 645.134 497.878 644.762 496.431 644.826C494.996 644.865 493.869 645.326 493.741 645.108C493.6 644.916 494.702 644.007 496.405 643.942C498.096 643.866 499.274 644.698 499.146 644.903Z" fill="#263238"/>
<path d="M372.202 620.9L350.98 635.629C350.98 635.629 366.08 659.309 363.057 663.267L322.42 630.698L354.771 603.905L372.202 620.9Z" fill="#455A64"/>
<g opacity="0.6">
<path d="M340.287 623.385C339.339 622.937 338.071 623.334 337.584 624.256C337.098 625.178 337.495 626.472 338.43 626.946C339.365 627.407 340.901 626.971 341.286 626.011C341.67 625.038 341.119 623.552 340.095 623.321" fill="white"/>
</g>
<g opacity="0.6">
<path d="M322.42 630.698L325.712 627.97L363.301 660.308C363.301 660.308 364.146 661.922 363.019 663.728L322.408 630.698H322.42Z" fill="white"/>
</g>
<path d="M351.8 635.975C351.634 636.167 350.596 635.412 349.111 635.22C347.638 634.976 346.421 635.386 346.319 635.168C346.178 634.976 347.458 634.08 349.239 634.349C351.032 634.605 351.992 635.847 351.8 635.988V635.975Z" fill="#263238"/>
<path d="M354.451 641.251C354.336 641.482 353.221 641.085 351.864 641.328C350.493 641.533 349.571 642.276 349.392 642.097C349.187 641.969 350.032 640.726 351.723 640.457C353.414 640.163 354.617 641.059 354.464 641.251H354.451Z" fill="#263238"/>
<path d="M352.517 648.23C352.313 648.115 352.876 646.924 354.272 646.296C355.668 645.656 356.936 646.027 356.885 646.258C356.859 646.514 355.783 646.565 354.643 647.103C353.491 647.603 352.735 648.371 352.517 648.23Z" fill="#263238"/>
<path d="M355.463 631.03C355.232 631.132 354.579 630.108 353.427 629.237C352.299 628.353 351.134 627.982 351.172 627.726C351.172 627.495 352.62 627.495 353.964 628.532C355.309 629.557 355.681 630.953 355.463 631.017V631.03Z" fill="#263238"/>
<path d="M397.034 452.921C397.034 452.921 396.739 455.598 397.315 458.735C398.404 464.652 397.405 474.245 402.438 481.583C410.148 492.79 423.224 506.455 423.224 506.455L448.826 568.929L471.559 650.473L502.809 645.849L486.633 546.17L460.673 452.473L397.034 452.921Z" fill="#263238"/>
<path d="M335.726 613.548L391.194 542.647L402.234 476.613L444.933 496.247L431.306 554.725C429.628 561.935 425.837 568.492 420.433 573.551L359.829 636.857L335.738 613.535L335.726 613.548Z" fill="#263238"/>
<path d="M441.577 551.165C441.577 551.165 441.513 551.075 441.423 550.896C441.321 550.691 441.193 550.422 441.026 550.089C440.693 549.372 440.168 548.334 439.579 546.964C438.362 544.236 436.761 540.202 434.968 535.169C433.15 530.148 431.241 524.065 428.641 517.507C426.054 510.989 422.52 503.919 416.731 498.181C413.913 495.236 411.057 492.469 408.47 489.6C407.83 488.883 407.202 488.153 406.626 487.398C406.075 486.629 405.524 485.861 404.987 485.118C404.423 484.375 403.975 483.581 403.475 482.813C403.232 482.428 402.989 482.044 402.745 481.673C402.528 481.276 402.31 480.892 402.092 480.495C400.363 477.395 399.057 474.245 398.288 471.184C397.533 468.11 397.302 465.139 397.392 462.462C397.392 461.117 397.597 459.849 397.712 458.645C397.943 457.454 398.071 456.327 398.352 455.29C398.596 454.253 398.826 453.292 399.095 452.421C399.351 451.55 399.582 450.743 399.838 450.039C400.312 448.617 400.722 447.542 401.016 446.812C401.157 446.466 401.26 446.197 401.349 445.979C401.426 445.787 401.477 445.697 401.477 445.697C401.477 445.697 401.465 445.8 401.4 445.992C401.324 446.21 401.234 446.491 401.119 446.837C400.863 447.58 400.478 448.669 400.03 450.103C399.787 450.807 399.569 451.614 399.339 452.485C399.082 453.356 398.865 454.317 398.634 455.354C398.378 456.379 398.25 457.506 398.032 458.684C397.93 459.875 397.75 461.13 397.75 462.462C397.686 465.113 397.93 468.033 398.698 471.056C399.479 474.078 400.773 477.177 402.502 480.238C402.72 480.623 402.925 481.007 403.142 481.391C403.386 481.762 403.629 482.147 403.859 482.518C404.359 483.274 404.807 484.055 405.371 484.798C405.909 485.541 406.459 486.296 407.01 487.065C407.586 487.795 408.188 488.525 408.842 489.229C411.403 492.072 414.272 494.839 417.089 497.797C422.942 503.599 426.515 510.771 429.077 517.328C431.664 523.924 433.534 530.007 435.301 535.041C437.043 540.087 438.593 544.121 439.733 546.874C440.296 548.258 440.783 549.308 441.077 550.038C441.218 550.371 441.333 550.653 441.423 550.87C441.5 551.062 441.526 551.152 441.526 551.165H441.577Z" fill="#455A64"/>
<path d="M537.12 439.679L497.059 413.975L489.989 364.334L474.07 385.12L475.35 422.85C475.504 427.179 478.078 431.06 482.01 432.866L529.64 454.766L537.12 439.692V439.679Z" fill="#FFBF9D"/>
<path d="M543.075 462.247C543.421 462.503 547.327 465.667 549.043 465.346C550.747 465.026 551.387 463.092 551.387 463.092C551.387 463.092 553.628 463.297 554.999 462.183C556.369 461.069 556.715 458.84 556.715 458.84L558.188 458.021C560.339 456.817 560.25 455.254 560.25 455.254C560.25 455.254 559.814 453.205 560.685 451.604C561.556 450.003 558.098 445.649 556.548 443.408C554.896 441.038 552.95 438.144 548.672 438.631C542.934 439.284 536.877 439.335 536.877 439.335L528.629 432.854L517.243 451.169L527.233 454.755C527.233 454.755 528.129 456.574 532.804 459.263C537.478 461.94 543.101 462.26 543.101 462.26L543.075 462.247Z" fill="#E0E0E0"/>
<path d="M547.288 457.776C550.029 459.313 552.347 461.824 554.371 464.295C563.413 475.374 570.482 488.066 575.144 501.577C577.885 509.518 579.678 518.79 575.272 525.949C571.891 531.457 565.615 534.389 559.698 536.976C552.283 540.217 544.714 543.418 536.697 544.558C528.679 545.685 520.624 543.585 513.528 539.692C491.308 527.525 503.283 498.375 503.283 498.375C509.379 484.889 518.254 472.671 529.192 462.707C532.15 460.005 535.621 457.367 539.425 456.534L545.329 444.188C545.329 444.188 552.424 443.74 552.757 443.74C553.09 443.74 556.317 450.592 556.317 450.592L547.288 457.751V457.776Z" fill="#263238"/>
<path d="M557.509 455.793C555.741 455.165 554.038 454.333 552.462 453.308C551.732 452.834 551.015 452.309 550.247 451.912C549.478 451.502 548.62 451.195 547.749 451.195C546.879 451.195 545.969 451.515 545.406 452.181C544.842 452.847 544.689 453.884 545.162 454.614C544.279 454.358 543.305 454.96 542.947 455.793C542.588 456.638 542.755 457.637 543.19 458.431C543.626 459.238 544.304 459.878 545.009 460.48C546.033 461.364 547.135 462.171 548.339 462.798C549.376 463.336 550.567 463.746 551.72 463.515C552.872 463.298 553.935 462.26 553.846 461.095C554.781 461.108 555.728 460.749 556.407 460.109" fill="#E0E0E0"/>
<path d="M548.287 449.427C547.839 448.467 547.903 447.199 548.671 446.469C549.568 445.624 551.002 445.764 552.168 446.149C554.96 447.045 557.342 448.864 559.66 450.657L560.224 452.219C560.083 452.86 559.929 453.5 559.596 454.064C559.263 454.627 558.738 455.114 558.085 455.203C557.47 455.293 556.868 455.037 556.292 454.781C554.268 453.884 553 453.474 551.182 452.219C550.311 451.617 548.71 450.388 548.262 449.427H548.287Z" fill="#E0E0E0"/>
<path d="M553.884 461.197C553.935 461.133 553.077 460.377 551.656 459.225C550.234 458.072 548.249 456.497 546.02 454.806C545.739 454.588 545.47 454.383 545.201 454.178C545.111 454.114 545.124 454.102 544.945 453.999C544.804 453.935 544.676 453.922 544.548 453.935C544.291 453.948 544.099 454.063 543.933 454.166C543.305 454.652 543.024 455.254 542.729 455.805C542.422 456.407 542.409 457.111 542.575 457.662C542.742 458.226 543.011 458.687 543.292 459.071C543.856 459.839 544.432 460.326 544.842 460.646C545.252 460.966 545.508 461.094 545.534 461.069C545.611 460.992 544.663 460.3 543.651 458.827C543.19 458.11 542.716 457.047 543.241 456.061C543.51 455.549 543.83 454.985 544.266 454.665C544.368 454.588 544.484 454.537 544.573 454.537C544.688 454.537 544.637 454.537 544.817 454.665C545.085 454.87 545.354 455.088 545.636 455.293C547.852 456.996 549.888 458.494 551.374 459.57C552.859 460.633 553.807 461.261 553.858 461.197H553.884Z" fill="#263238"/>
<path d="M558.827 456.496C558.866 456.42 558.072 455.895 556.753 455.1C555.433 454.306 553.589 453.243 551.514 452.104L551.566 452.142C551.502 452.091 551.425 452.04 551.361 451.976C550.349 451.245 549.248 450.695 548.108 450.592C546.955 450.464 545.918 451.053 545.431 451.745C544.932 452.449 544.829 453.141 544.791 453.589C544.765 454.05 544.816 454.294 544.868 454.294C544.919 454.294 544.932 454.05 545.034 453.628C545.136 453.218 545.316 452.59 545.79 452.027C546.251 451.463 547.096 451.041 548.057 451.169C549.017 451.284 550.054 451.796 550.989 452.488C551.053 452.539 551.117 452.59 551.169 452.629L551.194 452.654H551.207C553.282 453.807 555.165 454.806 556.535 455.497C557.905 456.189 558.776 456.586 558.815 456.509L558.827 456.496Z" fill="#263238"/>
<path d="M562.042 452.617C562.068 452.527 560.698 452.092 558.495 451.477L558.584 451.515C557.048 450.234 554.96 448.531 552.655 446.687C552.142 446.277 551.643 445.88 551.156 445.509L551.054 445.419L550.926 445.445C550.208 445.56 549.568 445.778 548.979 446.111C548.403 446.444 547.903 446.943 547.673 447.558C547.417 448.147 547.532 448.851 547.801 449.312C548.044 449.799 548.377 450.158 548.697 450.465C549.325 451.067 549.914 451.438 550.324 451.682C550.734 451.912 550.977 452.015 551.003 451.976C551.054 451.899 550.144 451.387 549.005 450.183C548.48 449.607 547.788 448.698 548.211 447.75C548.582 446.815 549.811 446.239 551.028 446.047L550.798 445.982C551.284 446.367 551.784 446.764 552.283 447.174C554.601 449.018 556.727 450.67 558.315 451.874L558.354 451.912H558.392C560.634 452.437 562.03 452.706 562.055 452.617H562.042Z" fill="#263238"/>
<path d="M555.843 446.008C561.683 441.397 567.536 436.787 573.376 432.176C574.298 431.446 575.246 430.69 575.758 429.64C576.271 428.59 576.207 427.155 575.297 426.425C574.439 425.734 573.184 425.888 572.108 426.118C568.407 426.925 564.821 428.257 561.504 430.076C562.682 427.463 563.873 424.85 565.051 422.237C565.538 421.149 565.999 419.766 565.218 418.856C564.424 417.947 562.938 418.242 561.837 418.741C557.175 420.867 553.768 425.555 553.205 430.652C552.628 425.311 551.296 420.06 549.234 415.091C548.658 413.682 547.851 412.158 546.378 411.736C544.906 411.313 543.318 412.273 542.549 413.605C541.781 414.925 541.64 416.513 541.601 418.05C541.32 427.309 543.561 436.633 547.979 444.778" fill="#263238"/>
<path d="M535.364 439.553C535.364 439.553 549.465 438.298 549.823 438.388C550.182 438.478 559.365 444.164 560.581 446.546C561.811 448.928 563.13 452.028 563.13 452.028C563.13 452.028 561.67 454.397 558.238 451.861C554.805 449.325 551.437 446.444 551.437 446.444L547.467 447.609C547.467 447.609 542.446 455.306 534.544 452.181" fill="#E0E0E0"/>
<path d="M534.532 452.168C534.532 452.168 534.865 452.321 535.518 452.565C535.838 452.706 536.261 452.782 536.76 452.885C537.26 453.013 537.849 453.026 538.502 453.051C539.808 453.026 541.435 452.706 543.061 451.835C544.675 450.951 546.314 449.606 547.659 447.736L547.518 447.839C548.786 447.48 550.105 447.096 551.488 446.699L551.245 446.648C552.808 447.992 554.498 449.376 556.304 450.772C557.226 451.45 558.097 452.219 559.198 452.808C559.749 453.077 560.364 453.295 561.03 453.32C561.683 453.346 562.387 453.141 562.913 452.693C563.092 452.539 563.246 452.385 563.374 452.18L563.463 452.052L563.399 451.911C562.925 450.9 562.464 449.914 562.003 448.927C561.773 448.441 561.542 447.954 561.324 447.467C561.068 446.981 560.94 446.507 560.582 446.033C559.916 445.136 559.109 444.496 558.328 443.843C557.546 443.203 556.739 442.626 555.971 442.063C554.396 440.948 552.872 439.95 551.424 439.053C551.053 438.835 550.694 438.618 550.336 438.413L550.054 438.259C550.054 438.259 549.926 438.195 549.875 438.182C549.798 438.182 549.721 438.182 549.644 438.195C549.414 438.246 549.234 438.285 549.03 438.336C548.274 438.554 547.544 438.758 546.839 438.963C544.073 439.796 541.845 440.513 540.308 441.013C539.591 441.256 539.014 441.448 538.54 441.602C538.143 441.743 537.938 441.832 537.938 441.845C537.938 441.858 538.169 441.819 538.579 441.717C539.053 441.589 539.642 441.422 540.372 441.23C541.998 440.769 544.227 440.142 546.955 439.36C547.646 439.168 548.376 438.976 549.145 438.771L549.695 438.643H549.734L549.747 438.63C549.747 438.63 549.747 438.682 549.785 438.515C549.76 438.669 549.785 438.63 549.785 438.63H549.811L549.862 438.669L550.118 438.81C550.464 439.027 550.823 439.245 551.181 439.463C552.616 440.372 554.127 441.384 555.676 442.498C556.445 443.062 557.239 443.638 557.995 444.278C558.75 444.919 559.544 445.585 560.133 446.366C560.415 446.725 560.594 447.275 560.825 447.736C561.043 448.21 561.273 448.697 561.504 449.184C561.952 450.157 562.413 451.143 562.887 452.155L562.913 451.886C562.836 451.988 562.708 452.142 562.567 452.257C561.721 452.987 560.479 452.808 559.493 452.296C558.507 451.771 557.598 451.002 556.688 450.323C554.882 448.94 553.192 447.57 551.629 446.251L551.514 446.161L551.373 446.199C549.99 446.609 548.671 447.006 547.416 447.391L547.339 447.416L547.288 447.493C546.033 449.273 544.457 450.631 542.908 451.514C541.345 452.385 539.808 452.731 538.528 452.795C535.953 452.821 534.583 452.078 534.557 452.206L534.532 452.168Z" fill="#263238"/>
<path d="M453.949 328.076L464.644 275.887C466.885 262.81 476.349 253.218 489.361 255.818L490.553 256.125C502.502 259.25 510.058 271.02 507.906 283.187C505.908 294.508 503.552 306.983 501.925 312.912C498.557 325.182 485.737 323.875 485.737 323.875C485.711 323.875 484.021 331.419 483.227 335.069L484.29 344.226L474.608 339.513L453.949 328.076Z" fill="#FFBF9D"/>
<path d="M485.737 323.874C485.737 323.874 477.86 322.299 470.944 314.947C470.944 314.947 472.379 325.206 484.955 327.306L485.737 323.874Z" fill="#FF9A6C"/>
<path d="M499.338 292.676C499.133 293.611 498.159 294.213 497.173 294.008C496.187 293.803 495.56 292.881 495.777 291.946C495.982 291.011 496.956 290.409 497.929 290.614C498.915 290.819 499.543 291.741 499.325 292.676H499.338Z" fill="#263238"/>
<path d="M503.859 287.938C503.577 288.104 502.501 286.772 500.619 286.286C498.736 285.773 497.097 286.375 496.943 286.094C496.866 285.965 497.199 285.607 497.916 285.325C498.621 285.043 499.748 284.877 500.926 285.197C502.104 285.517 502.975 286.209 503.436 286.798C503.897 287.4 503.987 287.861 503.859 287.938Z" fill="#263238"/>
<path d="M480.435 288.015C480.23 288.95 479.257 289.552 478.271 289.347C477.284 289.142 476.657 288.22 476.875 287.285C477.079 286.35 478.053 285.748 479.026 285.953C480.012 286.158 480.64 287.08 480.422 288.015H480.435Z" fill="#263238"/>
<path d="M485.199 283.533C484.917 283.699 483.841 282.367 481.959 281.88C480.076 281.368 478.437 281.97 478.283 281.688C478.206 281.56 478.539 281.202 479.256 280.92C479.961 280.638 481.088 280.472 482.266 280.792C483.444 281.112 484.315 281.804 484.776 282.393C485.237 282.995 485.327 283.456 485.199 283.533Z" fill="#263238"/>
<path d="M488.196 299.849C488.221 299.734 489.438 299.849 491.41 300.092C491.91 300.169 492.384 300.195 492.55 299.887C492.755 299.567 492.691 298.991 492.601 298.376C492.448 297.082 492.294 295.738 492.14 294.329C491.525 288.578 491.218 283.891 491.449 283.865C491.679 283.84 492.371 288.489 492.985 294.239C493.126 295.661 493.267 297.006 493.382 298.299C493.421 298.901 493.575 299.605 493.139 300.259C492.909 300.592 492.486 300.758 492.166 300.758C491.833 300.771 491.564 300.707 491.321 300.656C489.374 300.259 488.183 299.951 488.208 299.849H488.196Z" fill="#263238"/>
<path d="M487.364 277.782C486.979 278.192 485.276 277.206 483.06 276.578C480.845 275.9 478.885 275.81 478.783 275.247C478.744 274.978 479.231 274.645 480.128 274.465C481.011 274.273 482.292 274.286 483.624 274.67C484.956 275.067 486.032 275.759 486.672 276.386C487.312 277.027 487.543 277.577 487.376 277.77L487.364 277.782Z" fill="#263238"/>
<path d="M505.397 282.406C504.897 282.739 503.463 281.919 501.606 281.433C499.762 280.895 498.097 280.882 497.854 280.344C497.751 280.088 498.097 279.716 498.891 279.473C499.672 279.23 500.889 279.179 502.157 279.524C503.425 279.87 504.436 280.536 504.974 281.138C505.525 281.74 505.628 282.24 505.41 282.406H505.397Z" fill="#263238"/>
<path d="M463.273 285.26C463.081 285.119 455.473 280.547 453.54 289.039C451.606 297.53 460.532 297.709 460.596 297.478C460.66 297.235 463.273 285.273 463.273 285.273V285.26Z" fill="#FFBF9D"/>
<path d="M458.727 293.662C458.727 293.662 458.56 293.726 458.279 293.79C458.01 293.841 457.574 293.828 457.164 293.559C456.345 293.021 455.909 291.433 456.217 289.896C456.37 289.115 456.703 288.423 457.113 287.873C457.51 287.309 458.01 286.963 458.483 286.989C458.957 286.989 459.213 287.335 459.265 287.591C459.329 287.86 459.226 288.014 459.265 288.039C459.278 288.065 459.482 287.937 459.495 287.578C459.495 287.399 459.444 287.181 459.278 286.976C459.111 286.759 458.829 286.618 458.509 286.579C457.843 286.477 457.113 286.938 456.665 287.54C456.178 288.129 455.781 288.91 455.615 289.794C455.282 291.51 455.794 293.316 456.934 293.943C457.497 294.238 458.035 294.174 458.343 294.02C458.65 293.867 458.74 293.687 458.714 293.674L458.727 293.662Z" fill="#FF9A6C"/>
<path d="M481.933 299.72C482.228 299.771 481.818 301.718 483.201 303.46C484.571 305.202 486.71 305.432 486.659 305.714C486.659 305.842 486.108 305.996 485.225 305.829C484.354 305.675 483.15 305.125 482.317 304.062C481.472 302.999 481.28 301.769 481.382 300.95C481.485 300.117 481.805 299.682 481.933 299.72Z" fill="#263238"/>
<path d="M527.501 275.733C527.475 275.208 527.207 274.708 526.822 274.337C525.977 273.543 524.85 273.364 523.761 273.095C521.085 272.429 518.562 271.135 516.448 269.368C517.383 269.137 518.28 268.804 519.1 268.292C520.79 267.242 522.058 265.321 521.84 263.348C521.802 262.977 521.687 262.567 521.366 262.388C520.854 262.093 520.252 262.529 519.766 262.862C518.177 263.989 516.871 264.322 515.027 263.694C513.887 263.31 512.811 262.785 512.017 262.004C511.992 261.952 511.966 261.901 511.94 261.863C511.607 261.312 511.274 260.774 510.941 260.249C508.482 256.356 506.241 253.525 503.667 251.745C499.902 249.132 493.139 246.865 488.554 247.006C483.969 247.147 479.295 249.76 477.681 254.05C475.734 251.45 472.084 250.631 468.87 251.143L468.806 251.092C465.258 251.514 462.594 254.55 460.852 257.675C460.763 257.841 460.673 258.02 460.57 258.2C459.059 259.711 457.202 260.864 455.153 261.504C454.794 261.619 454.372 261.76 454.257 262.119C454.141 262.477 454.372 262.849 454.615 263.118C455.268 263.861 456.101 264.45 457.023 264.834C456.536 265.564 456.011 266.256 455.409 266.896C454.897 267.434 454.282 268.087 454.449 268.817C454.577 269.38 455.179 269.739 455.755 269.777C456.331 269.829 456.895 269.624 457.446 269.432C456.882 270.226 456.306 271.02 455.742 271.814C456.882 272.288 458.137 272.48 459.367 272.39C459.341 275.682 458.534 281.599 458.854 283.917C461.096 284.467 461.698 284.352 462.748 284.992C464.105 285.812 462.953 288.284 465.027 287.989C466.09 287.836 468.421 284.493 468.985 283.571C472.661 277.487 474.991 270.61 475.785 263.553C477.476 262.413 479.397 261.606 481.395 261.184L481.216 261.286C484.955 260.876 489.156 260.595 492.076 262.977C494.343 264.821 495.227 267.818 496.661 270.367C499.364 275.208 502.962 278.281 508.303 279.754C507.932 283.609 506.664 289.77 506.049 293.304L510.634 286.99V287.016C510.967 286.657 511.262 286.299 511.543 285.927L511.633 285.812C512.094 285.197 512.529 284.608 513.067 284.032C513.067 284.032 513.08 284.058 513.093 284.07C514.604 286.171 517.985 284.262 516.948 281.88C516.743 281.406 516.474 280.971 516.141 280.574C516.82 281.586 518.024 282.265 519.24 282.188C520.457 282.098 521.597 281.15 521.776 279.946C521.892 279.127 521.482 278.269 520.829 277.782C522.327 278.256 523.966 278.282 525.478 277.82C526.464 277.526 527.514 276.898 527.463 275.733H527.501Z" fill="#263238"/>
<path d="M481.28 256.368C481.28 256.368 480.691 256.573 479.769 257.226C478.86 257.866 477.733 259.083 476.913 260.914C476.503 261.824 476.132 262.848 475.876 264.001C475.607 265.141 475.414 266.383 475.21 267.702C474.992 269.008 474.774 270.392 474.364 271.8C474.159 272.505 473.916 273.196 473.596 273.888C473.276 274.554 472.917 275.284 472.238 275.771C471.7 276.168 470.932 276.219 470.356 275.963C469.766 275.707 469.28 275.258 468.985 274.708C468.396 273.593 468.473 272.364 468.511 271.275L468.767 271.365C468.127 272.197 467.474 273.03 466.654 273.619C465.847 274.221 464.848 274.503 463.939 274.375C463.478 274.311 463.055 274.131 462.71 273.862C462.364 273.581 462.146 273.196 462.031 272.812C461.928 272.415 461.916 272.018 462.031 271.647C462.133 271.288 462.364 270.968 462.646 270.776L462.748 270.929C461.544 271.8 460.392 272.159 459.623 272.313C459.239 272.39 458.932 272.428 458.727 272.441C458.522 272.441 458.419 272.454 458.419 272.441C458.419 272.441 458.522 272.415 458.727 272.39C458.932 272.351 459.226 272.313 459.61 272.21C460.366 272.018 461.48 271.647 462.646 270.776L462.748 270.929C462.223 271.275 462.031 272.044 462.236 272.761C462.351 273.107 462.543 273.465 462.851 273.696C463.158 273.939 463.555 274.093 463.965 274.157C464.81 274.259 465.732 273.99 466.488 273.427C467.256 272.863 467.897 272.057 468.524 271.211L468.793 270.853V271.301C468.742 272.39 468.691 273.568 469.229 274.58C469.498 275.066 469.933 275.476 470.458 275.694C470.983 275.924 471.598 275.873 472.059 275.54C472.648 275.117 473.007 274.439 473.314 273.773C473.621 273.107 473.878 272.415 474.07 271.736C474.48 270.366 474.697 268.983 474.915 267.676C475.133 266.37 475.325 265.115 475.607 263.962C475.888 262.81 476.26 261.76 476.695 260.85C477.553 259.006 478.732 257.789 479.666 257.162C480.614 256.534 481.242 256.406 481.242 256.406L481.28 256.368Z" fill="#455A64"/>
<path d="M516.909 277.257C516.909 277.257 516.871 277.282 516.794 277.321C516.692 277.359 516.576 277.411 516.435 277.475C516.282 277.551 516.077 277.628 515.834 277.692C515.59 277.769 515.308 277.859 514.988 277.91C513.708 278.192 511.735 278.307 509.456 277.641C507.201 276.988 504.627 275.541 502.604 273.159C500.529 270.802 498.954 267.677 497.865 264.258C497.301 262.541 496.93 260.838 496.443 259.224C495.97 257.611 495.38 256.099 494.535 254.806C493.715 253.512 492.652 252.462 491.461 251.809C490.872 251.476 490.245 251.284 489.63 251.156C489.015 251.053 488.4 251.04 487.824 251.092C486.671 251.207 485.672 251.604 484.878 252.052C484.084 252.513 483.495 253.064 483.06 253.551C482.227 254.562 482.035 255.292 481.997 255.267C481.997 255.267 481.997 255.216 482.035 255.139C482.074 255.036 482.125 254.921 482.176 254.767C482.317 254.447 482.573 253.999 482.97 253.474C483.393 252.962 483.982 252.398 484.789 251.911C485.596 251.425 486.607 251.015 487.798 250.887C488.388 250.823 489.015 250.823 489.668 250.938C490.309 251.066 490.975 251.258 491.577 251.604C492.819 252.27 493.92 253.346 494.766 254.665C495.637 255.984 496.238 257.521 496.725 259.147C497.212 260.774 497.596 262.477 498.16 264.168C499.235 267.562 500.785 270.648 502.821 272.979C504.819 275.349 507.317 276.77 509.532 277.449C511.774 278.128 513.708 278.051 514.988 277.795C516.269 277.539 516.922 277.206 516.948 277.257H516.909Z" fill="#455A64"/>
<path d="M519.292 272.071C519.292 272.071 519.113 272.161 518.78 272.276C518.447 272.404 517.934 272.532 517.307 272.647C516.679 272.763 515.911 272.84 515.065 272.852C514.22 272.852 513.285 272.775 512.312 272.596C511.351 272.404 510.455 272.109 509.661 271.802C508.88 271.469 508.201 271.111 507.663 270.765C507.125 270.419 506.702 270.112 506.433 269.868C506.164 269.638 506.024 269.497 506.036 269.484C506.075 269.446 506.677 269.945 507.765 270.585C508.303 270.906 508.982 271.239 509.763 271.546C510.545 271.841 511.415 272.122 512.363 272.302C513.311 272.481 514.22 272.558 515.053 272.583C515.885 272.583 516.641 272.532 517.268 272.442C518.523 272.263 519.279 272.02 519.292 272.071Z" fill="#455A64"/>
<path d="M500.505 397.415C499.851 397.863 481.422 400.463 481.422 400.463L493.153 345.008C493.153 345.008 498.225 353.947 499.198 364.001C500.172 374.055 500.505 397.415 500.505 397.415Z" fill="#E0E0E0"/>
<path d="M401.235 431.971C402.388 425.593 408.522 410.25 407.818 408.559L415.579 384.456L415.887 378.488L432.574 323.929L452.631 318.896H455.73C467.513 332.574 478.962 342.179 483.355 334.456L487.031 338.03C487.031 338.03 490.681 349.197 490.694 349.518C490.95 355.178 491.347 354.615 490.04 364.63C489.246 370.637 482.241 412.132 482.241 412.132C482.241 412.132 474.954 444.765 472.277 449.849C471.829 450.682 470.138 468.151 470.138 468.151C446.573 473.543 421.522 472.429 395.241 465.91C395.241 465.91 400.082 438.323 401.235 431.958V431.971Z" fill="#E0E0E0"/>
<g opacity="0.3">
<path d="M445.099 361.697L409.79 398.121L414.9 384.917L445.099 361.697Z" fill="black"/>
</g>
<path d="M454.667 318.331C454.667 318.331 464.362 329.461 467.807 344.24C469.139 349.965 473.251 379.921 473.251 379.921L487.223 337.529C487.223 337.529 496.88 346.802 496.88 350.106C496.88 350.106 484.931 394.906 484.649 396.737C483.804 402.308 476.862 440.563 476.504 442.331C476.158 444.073 473.251 472.876 473.251 472.876L462.236 472.53L460.763 462.284L458.407 472.53C431.678 471.096 411.315 467.215 392.168 459.915C393.974 447.774 398.789 431.432 403.951 414.616L416.566 351.886L433.932 322.814C439.401 320.329 448.11 318.818 454.68 318.357L454.667 318.331Z" fill="#27AE76"/>
<g opacity="0.6">
<path d="M470.92 441.524L485.123 376.258L475.492 373.043L477.733 366.243L487.646 369.176L494.076 345.008C494.076 345.008 497.393 348.082 496.855 350.093C496.406 351.758 492.718 365.654 491.488 370.315L491.642 370.367L489.631 377.782H489.58L476.478 442.33L474.929 455.01L395.78 443.189L399.033 431.367L437.532 436.823L453.464 368.394L430.244 364.065C429.578 364.065 436.878 356.714 436.878 356.714L455.769 360.812C456.576 355.946 457.908 345.521 456.128 337.439C453.72 326.54 444.191 319.829 444.191 319.829C446.381 319.317 447.739 319.099 450.326 318.805C450.326 318.805 456.922 325.298 460.764 338.425C463.697 348.415 463.044 358.2 462.57 362.285L470.907 364.091L472.086 371.865L461.904 369.97L448.431 438.373" fill="white"/>
</g>
<path d="M473.238 472.864C473.238 472.864 473.289 472.672 473.34 472.313C473.391 471.903 473.468 471.353 473.558 470.687C473.737 469.201 473.98 467.113 474.301 464.488C474.903 459.083 475.761 451.476 476.772 442.357V442.383C478.54 433.712 480.627 423.517 482.856 412.644C484.521 404.383 486.109 396.507 487.556 389.335C487.915 387.542 488.26 385.8 488.606 384.097C488.939 382.393 489.272 380.754 489.695 379.179C490.489 376.028 491.219 373.095 491.885 370.406C493.204 365.078 494.267 360.762 495.023 357.701C495.368 356.241 495.637 355.088 495.842 354.243C495.919 353.872 495.983 353.577 496.034 353.334C496.073 353.129 496.086 353.026 496.086 353.014C496.086 353.001 496.034 353.116 495.97 353.308C495.906 353.552 495.817 353.833 495.714 354.192C495.484 355.024 495.176 356.177 494.779 357.624C493.972 360.672 492.833 364.976 491.437 370.291C490.745 372.967 489.977 375.9 489.157 379.038C488.722 380.6 488.376 382.253 488.03 383.943C487.684 385.634 487.326 387.388 486.954 389.168C485.494 396.341 483.88 404.204 482.203 412.465C480.013 423.351 477.951 433.558 476.209 442.229V442.254C475.287 451.373 474.518 459.006 473.968 464.411C473.724 467.049 473.532 469.137 473.391 470.622C473.34 471.301 473.289 471.839 473.263 472.262C473.238 472.633 473.238 472.825 473.25 472.825L473.238 472.864Z" fill="#263238"/>
<path d="M426.44 403.077C426.44 403.077 426.825 403.563 427.593 404.357C428.361 405.151 429.501 406.278 430.936 407.649C433.792 410.39 437.839 414.078 442.449 417.997C447.06 421.903 451.363 425.297 454.527 427.679C456.115 428.87 457.408 429.818 458.318 430.446C459.227 431.086 459.739 431.419 459.765 431.381C459.79 431.342 459.329 430.945 458.471 430.241C457.511 429.472 456.281 428.486 454.821 427.308C451.735 424.836 447.483 421.404 442.885 417.498C438.287 413.591 434.201 409.967 431.269 407.316C429.873 406.061 428.707 405.011 427.785 404.191C426.953 403.461 426.479 403.064 426.453 403.102L426.44 403.077Z" fill="#263238"/>
<path d="M460.751 463.116C460.751 463.116 460.84 462.694 460.943 461.887C461.045 461.003 461.173 459.838 461.34 458.39C461.66 455.278 462.095 450.962 462.621 445.737V445.698C462.864 442.368 463.543 438.526 464.17 434.454C464.849 430.368 465.566 425.988 466.322 421.441C468.268 410.017 470.023 399.682 471.304 392.1C471.919 388.399 472.418 385.376 472.777 383.199C472.93 382.2 473.046 381.393 473.148 380.778C473.225 380.228 473.251 379.933 473.238 379.92C473.212 379.92 473.135 380.202 473.02 380.753C472.892 381.368 472.725 382.162 472.533 383.161C472.123 385.338 471.547 388.335 470.856 392.023C469.472 399.515 467.615 409.877 465.681 421.339C464.913 425.886 464.196 430.266 463.555 434.364C463.248 436.413 462.953 438.385 462.685 440.281C462.544 441.229 462.428 442.151 462.326 443.06C462.275 443.508 462.223 443.957 462.172 444.405C462.147 444.866 462.121 445.314 462.108 445.75V445.711C461.673 450.949 461.314 455.278 461.058 458.39C460.956 459.85 460.866 461.016 460.802 461.9C460.751 462.706 460.738 463.142 460.763 463.142L460.751 463.116Z" fill="#263238"/>
<path d="M487.428 337.822C487.3 337.976 489.708 340.115 492.308 343.086C494.946 346.032 496.598 348.798 496.752 348.709C496.918 348.632 495.484 345.66 492.807 342.651C490.156 339.628 487.518 337.694 487.428 337.822Z" fill="#263238"/>
<path d="M369.896 390.269C372.407 381.726 376.94 373.914 383.101 367.485L418.308 330.728C423.11 325.451 430.065 322.467 437.173 323.095C440.81 323.415 445.69 325.81 447.828 328.807C453.041 336.094 451.427 344.649 450.876 347.249L439.081 358.763L395.716 395.609L376.979 448.862L359.471 445.711L369.884 390.269H369.896Z" fill="#FFBF9D"/>
<path d="M450.888 347.249C451.747 344.726 453.053 336.094 447.84 328.807C445.702 325.823 440.822 323.415 437.185 323.095C430.077 322.467 423.122 325.451 418.32 330.728L392.167 356.266L415.067 383.02C415.067 383.02 447.956 355.894 450.901 347.237L450.888 347.249Z" fill="#E0E0E0"/>
<path d="M374.263 458.018C374.263 458.018 369.781 460.9 368.858 464.883C367.936 468.866 370.882 470.531 370.882 470.531C370.882 470.531 369.64 475.756 366.143 476.486C362.634 477.216 361.405 474.335 361.405 474.335C361.405 474.335 360.406 474.693 359.945 474.783C356.154 475.59 355.705 469.711 355.705 469.711C353.067 469.711 352.145 465.985 352.145 465.985C352.145 465.985 352.055 461.925 352.67 459.338C353.285 456.751 358.882 447.465 358.882 447.465C358.882 447.465 359.868 432.43 360.009 431.328L383.331 435.542C383.331 435.542 378.438 448.375 378.297 449.514C378.297 449.514 379.834 452.908 380.116 453.907C380.769 456.136 381.845 460.349 379.911 464.384C379.911 464.384 378.963 465.754 378.016 464.422C377.081 463.09 374.25 458.006 374.25 458.006L374.263 458.018Z" fill="#E0E0E0"/>
<path d="M362.031 470.032C361.865 469.917 361.109 470.916 361.02 472.414C360.917 473.9 361.532 474.988 361.711 474.912C361.916 474.835 361.66 473.772 361.75 472.465C361.826 471.159 362.211 470.134 362.031 470.045V470.032Z" fill="#263238"/>
<path d="M356.218 466.293C356.013 466.254 355.77 467.074 355.667 468.111C355.565 469.149 355.641 469.994 355.846 470.007C356.051 470.007 356.295 469.2 356.397 468.188C356.5 467.176 356.423 466.331 356.218 466.293Z" fill="#263238"/>
<path d="M373.52 474.002C369.262 474.002 365.81 470.551 365.81 466.292C365.81 462.034 369.262 458.583 373.52 458.583C377.778 458.583 381.23 462.034 381.23 466.292C381.23 470.551 377.778 474.002 373.52 474.002Z" fill="#263238"/>
<path d="M82.79 716.37H35V762.76H82.79V716.37Z" fill="#E0E0E0"/>
<path d="M65.6401 740.79C65.3501 739.9 64.8101 739.03 64.8701 737.53C64.9001 736.86 65.2801 736.31 65.5901 735.18C65.9001 734.04 65.2301 732.34 64.3601 731.29C63.4901 730.24 62.7701 729.3 62.8201 728.13H59.9301C59.9801 729.31 59.2601 730.24 58.3901 731.29C57.5201 732.34 56.8501 734.05 57.1601 735.18C57.4701 736.32 57.8201 736.8 57.8801 737.53C57.9801 738.87 57.4101 739.89 57.1101 740.79C56.9401 741.32 56.8501 741.86 56.8501 742.41V752.16C56.8501 752.88 57.5901 753.47 58.5101 753.47H64.2301C65.1401 753.47 65.8901 752.88 65.8901 752.16V742.41C65.8901 741.86 65.8001 741.32 65.6301 740.79H65.6401Z" fill="white"/>
<path d="M62.53 726.13H60.16C59.79 726.13 59.49 726.43 59.49 726.8V727.58C59.49 727.95 59.79 728.25 60.16 728.25H62.53C62.9 728.25 63.2 727.95 63.2 727.58V726.8C63.2 726.43 62.9 726.13 62.53 726.13Z" fill="#E0E0E0"/>
<path d="M63.3402 728.18H59.4302V728.5H63.3402V728.18Z" fill="#E0E0E0"/>
<path d="M64.88 737.25C64.88 737.39 63.29 737.51 61.34 737.51C59.39 737.51 57.8 737.39 57.8 737.25C57.8 737.11 59.39 736.99 61.34 736.99C63.29 736.99 64.88 737.11 64.88 737.25Z" fill="#E0E0E0"/>
<path d="M64.88 738.73C64.88 738.87 63.29 738.99 61.34 738.99C59.39 738.99 57.8 738.87 57.8 738.73C57.8 738.59 59.39 738.47 61.34 738.47C63.29 738.47 64.88 738.59 64.88 738.73Z" fill="#E0E0E0"/>
<path d="M65.9001 743.51H56.8701V750.22H65.9001V743.51Z" fill="#B8B8B8"/>
<path d="M63.2602 728.17C63.2602 728.31 62.4002 728.43 61.3402 728.43C60.2802 728.43 59.4202 728.31 59.4202 728.17C59.4202 728.03 60.2802 727.91 61.3402 727.91C62.4002 727.91 63.2602 728.03 63.2602 728.17Z" fill="#C5C5C5"/>
<path d="M60.2102 728.11C60.0702 728.11 59.9502 727.67 59.9502 727.12C59.9502 726.57 60.0702 726.13 60.2102 726.13C60.3502 726.13 60.4702 726.57 60.4702 727.12C60.4702 727.67 60.3502 728.11 60.2102 728.11Z" fill="#C5C5C5"/>
<path d="M61.3501 728.11C61.2101 728.11 61.0901 727.67 61.0901 727.12C61.0901 726.57 61.2101 726.13 61.3501 726.13C61.4901 726.13 61.6101 726.57 61.6101 727.12C61.6101 727.67 61.4901 728.11 61.3501 728.11Z" fill="#C5C5C5"/>
<path d="M62.5 728.11C62.36 728.11 62.24 727.67 62.24 727.12C62.24 726.57 62.36 726.13 62.5 726.13C62.64 726.13 62.76 726.57 62.76 727.12C62.76 727.67 62.64 728.11 62.5 728.11Z" fill="#C5C5C5"/>
<path d="M145.98 698H79.2598V762.76H145.98V698Z" fill="#C5C5C5"/>
<path d="M122.04 732.09C121.63 730.84 120.88 729.63 120.97 727.54C121.01 726.61 121.54 725.84 121.97 724.26C122.4 722.68 121.47 720.3 120.25 718.83C119.03 717.36 118.03 716.06 118.11 714.42H114.08C114.15 716.06 113.15 717.36 111.94 718.83C110.73 720.3 109.8 722.68 110.22 724.26C110.65 725.84 111.14 726.52 111.22 727.54C111.36 729.4 110.56 730.84 110.15 732.09C109.91 732.83 109.79 733.59 109.79 734.35V747.96C109.79 748.97 110.82 749.79 112.1 749.79H120.08C121.36 749.79 122.39 748.97 122.39 747.96V734.35C122.39 733.59 122.27 732.83 122.03 732.09H122.04Z" fill="white"/>
<path d="M117.97 711.62H114.12C113.75 711.62 113.45 711.92 113.45 712.29V713.91C113.45 714.28 113.75 714.58 114.12 714.58H117.97C118.34 714.58 118.64 714.28 118.64 713.91V712.29C118.64 711.92 118.34 711.62 117.97 711.62Z" fill="#E0E0E0"/>
<path d="M118.82 714.48H113.36V714.92H118.82V714.48Z" fill="#E0E0E0"/>
<path d="M120.97 727.14C120.97 727.28 118.76 727.4 116.02 727.4C113.28 727.4 111.07 727.28 111.07 727.14C111.07 727 113.28 726.88 116.02 726.88C118.76 726.88 120.97 727 120.97 727.14Z" fill="#E0E0E0"/>
<path d="M120.97 729.22C120.97 729.36 118.76 729.48 116.02 729.48C113.28 729.48 111.07 729.36 111.07 729.22C111.07 729.08 113.28 728.96 116.02 728.96C118.76 728.96 120.97 729.08 120.97 729.22Z" fill="#E0E0E0"/>
<path d="M122.4 735.89H109.79V745.26H122.4V735.89Z" fill="#B8B8B8"/>
<path d="M118.71 714.47C118.71 714.61 117.51 714.73 116.03 714.73C114.55 714.73 113.35 714.61 113.35 714.47C113.35 714.33 114.55 714.21 116.03 714.21C117.51 714.21 118.71 714.33 118.71 714.47Z" fill="#C5C5C5"/>
<path d="M114.45 714.38C114.31 714.38 114.19 713.76 114.19 713C114.19 712.24 114.31 711.62 114.45 711.62C114.59 711.62 114.71 712.24 114.71 713C114.71 713.76 114.59 714.38 114.45 714.38Z" fill="#C5C5C5"/>
<path d="M116.05 714.38C115.91 714.38 115.79 713.76 115.79 713C115.79 712.24 115.91 711.62 116.05 711.62C116.19 711.62 116.31 712.24 116.31 713C116.31 713.76 116.19 714.38 116.05 714.38Z" fill="#C5C5C5"/>
<path d="M117.65 714.38C117.51 714.38 117.39 713.76 117.39 713C117.39 712.24 117.51 711.62 117.65 711.62C117.79 711.62 117.91 712.24 117.91 713C117.91 713.76 117.79 714.38 117.65 714.38Z" fill="#C5C5C5"/>
<path d="M685.97 695.745C687.6 693.835 689.46 691.905 691.63 690.755L678.12 679.625C677.41 679.045 676.68 678.435 676.3 677.595C675.92 676.765 675.99 675.645 676.72 675.085C677.41 674.555 678.38 674.695 679.22 674.905C682.11 675.595 684.89 676.705 687.47 678.185C686.59 676.115 685.7 674.045 684.82 671.985C684.45 671.125 684.12 670.025 684.75 669.335C685.39 668.635 686.54 668.885 687.4 669.295C691.02 671.035 693.61 674.765 693.97 678.775C694.51 674.595 695.65 670.505 697.34 666.645C697.82 665.555 698.48 664.365 699.63 664.065C700.79 663.765 702.02 664.545 702.6 665.595C703.18 666.645 703.26 667.895 703.27 669.095C703.34 676.365 701.42 683.625 697.82 689.935C700.78 690.645 703.46 692.775 705.73 694.935C714.13 702.925 720.88 712.655 725.44 723.315C725.44 723.315 734.35 746.365 716.73 755.525C711.1 758.455 705.75 757.055 699.48 756.035C693.22 755.015 686.35 755.295 680.59 752.625C675.99 750.495 671.13 748.095 668.57 743.725C665.24 738.035 666.79 730.805 669.08 724.625C672.97 714.115 678.72 704.295 685.98 695.755L685.97 695.745Z" fill="#C5C5C5"/>
<path d="M726.44 736.445C721.15 729.455 711.89 725.695 703.22 727.015C705.61 719.975 703.07 711.555 697.19 707.015C691.31 702.465 682.53 702.125 676.31 706.205C670.44 691.895 656.32 680.475 640.85 680.715C625.39 680.965 610.67 695.215 612.52 710.565C598.38 714.855 588.75 730.585 591.35 745.135C578.22 741.515 562.97 749.905 559 762.945L729.34 763.265C732.96 755.275 731.71 743.445 726.42 736.455L726.44 736.445Z" fill="#E0E0E0"/>
</svg>
